<?xml version="1.0" standalone="no"?>
<!DOCTYPE svg PUBLIC "-//W3C//DTD SVG 20010904//EN"
 "http://www.w3.org/TR/2001/REC-SVG-20010904/DTD/svg10.dtd">
<svg version="1.0" xmlns="http://www.w3.org/2000/svg"
 width="828.000000pt" height="1063.000000pt" viewBox="0 0 828.000000 1063.000000"
 preserveAspectRatio="xMidYMid meet">

<g transform="translate(0.000000,1063.000000) scale(0.100000,-0.100000)"
fill="#000000" stroke="none">
<path d="M0 5315 l0 -5315 4140 0 4140 0 0 5315 0 5315 -4140 0 -4140 0 0
-5315z m5234 2597 c176 -73 337 -206 438 -362 115 -177 168 -349 189 -610 24
-309 -38 -719 -171 -1129 -16 -51 -30 -102 -30 -112 0 -29 56 -85 98 -97 22
-7 60 -12 86 -12 44 0 226 -26 626 -90 102 -16 208 -32 235 -35 28 -4 82 -12
120 -20 39 -7 124 -21 190 -30 112 -16 451 -68 521 -80 35 -6 50 -21 86 -85
32 -59 62 -137 88 -230 23 -84 48 -373 36 -432 -7 -36 -7 -36 -69 -43 -34 -3
-107 -12 -162 -20 -178 -25 -215 -27 -215 -12 0 7 10 56 22 108 12 52 23 122
25 156 4 58 3 64 -23 88 -30 28 -161 95 -185 95 -8 0 -19 4 -24 9 -20 19 -192
32 -281 21 -148 -19 -183 -37 -314 -169 -79 -80 -132 -144 -169 -205 -61 -98
-123 -243 -125 -290 -1 -31 0 -31 52 -34 70 -4 153 23 315 104 70 35 131 64
136 64 17 0 41 -137 41 -228 0 -264 -129 -402 -525 -562 -166 -67 -189 -79
-261 -137 -70 -56 -83 -69 -150 -148 -124 -146 -194 -294 -254 -540 -18 -71
-38 -148 -45 -170 -7 -22 -25 -83 -40 -135 -59 -206 -148 -453 -203 -570 -34
-72 -96 -141 -144 -161 -42 -17 -214 1 -260 28 -62 36 -73 71 -72 228 1 158
20 262 101 555 25 91 48 179 50 195 6 43 -12 82 -49 106 -52 32 -137 21 -299
-39 -74 -28 -219 -80 -324 -117 -536 -190 -984 -390 -1228 -547 -62 -40 -150
-93 -197 -119 -85 -46 -105 -57 -280 -154 -52 -29 -203 -113 -335 -185 -132
-73 -339 -188 -460 -255 -121 -67 -247 -137 -280 -155 -33 -18 -136 -76 -230
-128 -93 -52 -199 -110 -235 -130 -36 -19 -184 -101 -330 -182 -146 -81 -296
-164 -335 -185 -38 -21 -74 -41 -80 -45 -5 -4 -41 -24 -79 -45 -66 -35 -71
-36 -83 -19 -34 47 -42 144 -18 234 76 290 444 639 1070 1015 119 72 203 119
420 235 44 24 100 54 125 68 25 13 88 47 140 75 52 27 100 53 105 57 6 4 60
33 120 65 89 47 404 217 735 397 30 17 89 48 130 70 122 66 222 120 265 143
22 12 96 52 165 90 69 37 148 80 175 95 46 26 588 319 735 398 36 19 112 60
170 92 58 31 139 75 180 97 41 23 210 114 375 203 165 90 325 176 355 192 143
77 312 302 360 481 26 95 -7 216 -78 291 -98 103 -258 175 -502 227 -253 53
-364 60 -1025 66 -613 5 -815 0 -1395 -32 -342 -19 -753 -55 -1107 -97 -57 -6
-105 -9 -109 -5 -8 8 25 416 36 443 7 17 20 22 75 28 151 15 490 67 498 75 6
6 15 40 22 78 7 37 24 124 38 193 34 162 134 645 152 735 13 67 40 198 71 355
9 41 21 104 29 140 33 169 106 519 114 553 21 88 96 125 285 138 72 5 165 14
206 19 129 18 409 45 835 79 110 9 413 28 560 35 33 1 204 2 380 2 l320 -1 79
-33z m-1736 -3048 c117 -10 217 -21 223 -25 8 -4 -2 -59 -31 -170 -23 -90 -48
-189 -55 -219 -16 -70 -72 -296 -84 -335 -5 -16 -55 -214 -111 -440 -56 -225
-105 -413 -109 -417 -7 -8 -236 -26 -381 -30 -89 -3 -105 -1 -103 12 2 23 27
135 78 355 25 110 52 229 60 265 8 36 30 135 50 220 19 85 49 218 65 295 17
77 34 154 39 170 5 17 24 98 41 180 18 83 38 153 43 157 6 4 23 5 37 3 14 -2
121 -12 238 -21z"/>
<path d="M4055 7300 c-359 -38 -486 -51 -590 -61 -98 -10 -124 -16 -143 -33
-55 -49 -153 -306 -211 -551 -12 -49 -30 -126 -41 -170 -18 -72 -80 -377 -80
-390 0 -11 246 -2 535 20 39 3 147 10 240 15 94 6 215 15 270 20 55 6 150 14
210 20 211 19 280 30 350 56 245 94 343 281 314 597 -24 266 -113 400 -308
464 -54 18 -416 27 -546 13z"/>
</g>
</svg>
